<svg xmlns="http://www.w3.org/2000/svg" width="256" height="256" viewBox="0 0 100 100"><rect width="100" height="100" rx="20" fill="#6457a4"></rect><path d="M23.78 68.33L23.78 68.33Q21.50 68.33 20.15 66.98Q18.80 65.63 18.80 63.35L18.80 63.35L18.80 31.73Q19.46 31.61 20.69 31.43Q21.92 31.25 23.12 31.25L23.12 31.25Q25.82 31.25 27.02 32.15Q28.22 33.05 28.22 35.69L28.22 35.69L28.22 60.71L42.62 60.71Q42.98 61.31 43.31 62.27Q43.64 63.23 43.64 64.37L43.64 64.37Q43.64 66.35 42.77 67.34Q41.90 68.33 40.40 68.33L40.40 68.33L23.78 68.33ZM70.04 67.13L70.04 67.13Q69.26 67.79 67.67 68.27Q66.08 68.75 64.22 68.75L64.22 68.75Q61.94 68.75 60.32 68.09Q58.70 67.43 58.10 66.23L58.10 66.23Q57.38 64.79 56.42 62.54Q55.46 60.29 54.41 57.56Q53.36 54.83 52.22 51.71Q51.08 48.59 50.03 45.44Q48.98 42.29 48.05 39.26Q47.12 36.23 46.46 33.65L46.46 33.65Q47.24 32.93 48.65 32.27Q50.06 31.61 51.68 31.61L51.68 31.61Q53.66 31.61 54.89 32.48Q56.12 33.35 56.78 35.57L56.78 35.57Q58.58 41.81 60.38 47.57Q62.18 53.33 64.22 59.45L64.22 59.45L64.58 59.45Q66.38 53.63 68.30 46.61Q70.22 39.59 71.90 32.69L71.90 32.69Q72.86 32.21 73.94 31.91Q75.02 31.61 76.40 31.61L76.40 31.61Q78.38 31.61 79.79 32.51Q81.20 33.41 81.20 35.45L81.20 35.45Q81.20 36.71 80.57 39.23Q79.94 41.75 78.92 44.93Q77.90 48.11 76.64 51.59Q75.38 55.07 74.15 58.19Q72.92 61.31 71.81 63.71Q70.70 66.11 70.04 67.13Z" fill="#fff"></path></svg>
